<svg xmlns="http://www.w3.org/2000/svg" width="20" height="20" viewBox="0 0 20 20" fill="none">
  <path d="M9.27998 0.800002L8.77998 1.3C7.43998 0.550002 5.83998 0.400002 4.40998 0.870002L4.32998 0.800002C3.35998 -0.179998 1.76998 -0.179998 0.79998 0.800002C-0.17002 1.78 -0.18002 3.36 0.79998 4.33L0.86998 4.41C0.39998 5.84 0.54998 7.44 1.29998 8.78L0.79998 9.28C0.65969 9.41859 0.548306 9.58365 0.472286 9.76561C0.396265 9.94756 0.357119 10.1428 0.357119 10.34C0.357119 10.5372 0.396265 10.7324 0.472286 10.9144C0.548306 11.0964 0.65969 11.2614 0.79998 11.4L2.20998 12.82C2.79998 13.4 3.73998 13.4 4.32998 12.82L4.67998 12.46L11.76 19.53C12.34 20.12 13.29 20.12 13.88 19.53L19.53 13.88C20.12 13.29 20.12 12.34 19.53 11.75L12.46 4.68L12.82 4.33C13.4 3.74 13.4 2.8 12.82 2.21L11.4 0.790002C11.1174 0.510424 10.7354 0.35444 10.3379 0.356315C9.94041 0.358191 9.5599 0.517771 9.27998 0.800002ZM2.24998 5.05C2.32998 4.71 2.46998 4.38 2.65998 4.07L1.85998 3.27C1.75262 3.16863 1.67337 3.04115 1.62998 2.9C1.49998 2.56 1.56998 2.14 1.85998 1.86C2.14998 1.58 2.55998 1.5 2.89998 1.63C3.03998 1.67 3.15998 1.75 3.26998 1.86L4.06998 2.66C4.37998 2.47 4.70998 2.33 5.04998 2.25C5.90998 2 6.82998 2.06 7.64998 2.42L2.41998 7.65C2.05998 6.83 1.99998 5.91 2.24998 5.05ZM18.47 12.82L12.82 18.47L5.74998 11.4L11.4 5.75L18.47 12.82ZM11.76 3.27L3.26998 11.76L1.85998 10.34L10.34 1.86L11.76 3.27ZM12.82 9.63L9.62998 12.82L8.56998 11.76L11.76 8.57L12.82 9.63ZM14.94 11.76L11.76 14.94L10.69 13.88L13.88 10.69L14.94 11.76Z" fill="#976474"/>
</svg>