<svg xmlns="http://www.w3.org/2000/svg" width="12" height="20" viewBox="0 0 12 20" fill="none">
  <path fill-rule="evenodd" clip-rule="evenodd" d="M0.606882 11.4664C0.218276 11.0739 0 10.5419 0 9.98724C0 9.43256 0.218276 8.90055 0.606882 8.50809L8.43154 0.612769C8.82083 0.220289 9.34875 -0.000130788 9.89916 5.8222e-08C10.1717 6.48469e-05 10.4415 0.054274 10.6933 0.159533C10.9451 0.264792 11.1738 0.419038 11.3665 0.613466C11.5591 0.807895 11.712 1.0387 11.8162 1.29269C11.9204 1.54669 11.974 1.81891 11.974 2.09381C11.9739 2.36871 11.9202 2.6409 11.8158 2.89485C11.7115 3.1488 11.5585 3.37953 11.3658 3.57386L5.00756 9.98724L11.3658 16.4006C11.5641 16.5936 11.7223 16.8245 11.8311 17.0798C11.94 17.3351 11.9974 17.6098 11.9999 17.8877C12.0024 18.1656 11.9501 18.4413 11.8458 18.6986C11.7416 18.9558 11.5876 19.1896 11.3929 19.3862C11.1981 19.5829 10.9665 19.7384 10.7116 19.8438C10.4566 19.9491 10.1833 20.0022 9.90781 19.9999C9.63228 19.9976 9.35995 19.94 9.10673 19.8305C8.8535 19.7209 8.62444 19.5615 8.43293 19.3617L0.604115 11.4664H0.606882Z" fill="#976474"/>
</svg>