<svg width="44" height="68" viewBox="0 0 44 68" fill="none" xmlns="http://www.w3.org/2000/svg">
<g filter="url(#filter0_d_11_4)">
<path fill-rule="evenodd" clip-rule="evenodd" d="M29.0705 1.69434C28.6657 1.91756 28.3946 2.26377 28.1551 2.86325C28.0433 3.14309 28.0209 3.47531 28.0578 4.30688C28.1005 5.26978 28.1381 5.46471 28.4046 6.1026C28.9524 7.41368 29.9206 8.7901 30.3581 8.8795C30.6093 8.93086 31.4505 8.75632 32.026 8.53345C32.9637 8.17039 34.7457 6.82452 35.1298 6.1893C35.9687 4.80173 36.0042 4.06395 35.2621 3.43804C35.0226 3.23603 34.9404 3.22317 34.2055 3.2723C33.5042 3.3191 32.7265 3.54034 32.7332 3.69108C32.7343 3.71639 32.8825 3.66777 33.0624 3.58297C33.2555 3.49205 33.6715 3.41642 34.0777 3.39839C34.7377 3.3691 34.7794 3.38016 35.0927 3.66686C35.416 3.96271 35.4611 4.09414 35.4534 4.71791C35.4354 6.17638 32.6028 8.53543 30.772 8.61667C30.2606 8.63937 29.9949 8.41833 29.3173 7.40661C28.7914 6.62145 28.4777 5.89492 28.2776 4.99894C28.1035 4.21901 28.1081 3.92816 28.3056 3.22228C28.5046 2.5109 28.9566 1.93103 29.4054 1.81143C30.1711 1.60723 31.0883 2.23975 31.7061 3.39816C31.8982 3.75847 32.1079 4.03908 32.1825 4.03577C32.2962 4.03072 32.2941 4.00712 32.1683 3.87503C32.0872 3.78992 31.882 3.45665 31.7124 3.13452C31.3225 2.39414 30.5977 1.71859 30.0439 1.5794C29.5174 1.44703 29.5194 1.44675 29.0705 1.69434ZM15.123 5.99631C13.3243 6.50778 12.0563 7.85832 11.4689 9.8883C11.2761 10.5548 11.2526 10.845 11.2522 12.572C11.2515 15.185 11.2514 15.1788 11.3246 15.7295L11.389 16.2132L10.8003 16.4548C9.86681 16.8378 9.2947 17.1964 8.19859 18.0856C6.57165 19.4054 4.86357 21.3964 3.53762 23.5186C1.87091 26.1863 0.994825 29.0351 1.27013 30.8918C1.34239 31.3793 1.3604 31.407 1.59738 31.3965C1.92031 31.3822 2.26144 31.6304 2.61257 32.1351C2.76642 32.3564 2.93381 32.5356 2.98442 32.5334C3.04148 32.5309 3.05517 31.9958 3.02052 31.1257C2.97226 29.9137 2.99211 29.5984 3.16595 28.8156C3.81532 25.8907 5.608 22.814 8.43406 19.774C9.65263 18.4631 10.6197 17.6369 11.65 17.0266L12.2388 16.6777L12.201 15.7573C12.1737 15.0948 12.2094 14.654 12.3281 14.1841C12.4187 13.825 12.5216 13.1358 12.5566 12.6524C12.7562 9.89968 14.1516 7.85689 16.1301 7.42117C16.6264 7.31182 16.8739 7.30739 17.4957 7.39625C18.3701 7.5214 19.8934 8.13098 20.6533 8.65993C22.4327 9.89864 23.3145 11.9138 22.8523 13.6851C22.6323 14.5283 22.2222 15.3233 21.7075 15.9041L21.2635 16.4053L20.8168 16.2799C20.2616 16.1239 20.1537 16.2172 20.5565 16.5045C20.8465 16.7114 20.8646 16.7562 20.89 17.3284C20.9458 18.5851 20.3164 19.6939 19.1993 20.3068C18.6464 20.6102 18.5125 20.6436 17.5623 20.7161C16.7493 20.7781 16.5177 20.7686 16.4826 20.6718C16.458 20.6041 16.3376 20.2538 16.2151 19.8937C15.8997 18.9662 15.3135 18.2221 14.4578 17.6627C13.6123 17.11 13.2656 17.0689 13.9137 17.5981C14.6989 18.2393 15.0759 18.8687 15.3448 19.9867C15.4875 20.5802 15.4941 20.7584 15.4006 21.4889C15.2291 22.827 15.0313 23.211 13.8985 24.4039C13.3552 24.9761 12.9451 25.4756 12.9871 25.514C13.0291 25.5526 13.0976 25.5163 13.1392 25.4335C13.2704 25.1724 14.1262 24.5096 14.8922 24.0761C15.693 23.6228 17.0238 23.1506 17.5688 23.1264C17.9015 23.1116 17.9185 23.093 18.2553 22.3689C18.9005 20.9817 19.4955 20.5491 20.9435 20.4144C21.7281 20.3413 21.8323 20.3501 21.895 20.4941C21.9475 20.6146 21.8465 20.7775 21.4997 21.1326C21.133 21.5078 21.0822 21.593 21.261 21.5326C21.639 21.4048 21.6697 21.4138 21.7099 21.664C21.7374 21.8347 21.6824 21.9624 21.5218 22.1006C21.2609 22.3253 21.2342 22.4305 21.4505 22.3819C21.707 22.3242 21.7018 22.5584 21.4407 22.8257C21.0411 23.2346 20.5666 23.5326 19.9336 23.772L19.3432 23.9952L18.9635 23.7675C18.7547 23.6423 18.5845 23.5558 18.5854 23.5755C18.5863 23.5952 18.6562 23.7827 18.7407 23.9924C18.8739 24.3223 18.8786 24.4078 18.7756 24.6306C18.4376 25.3621 17.2872 26.4075 16.219 26.9539C15.3107 27.4186 13.8796 27.6874 12.9075 27.5757C12.0361 27.4757 11.53 27.1963 11.1605 26.6113C10.6331 25.776 10.5039 25.1189 10.4154 22.8215C10.372 21.6949 10.3022 20.7748 10.2604 20.7767C10.1818 20.7801 10.0565 21.3013 9.93691 22.1221C9.82479 22.8908 9.94946 25.0851 10.145 25.7842C10.3451 26.5001 10.8034 27.3557 11.125 27.614C11.7984 28.1549 12.6538 28.4098 13.8136 28.4152C14.2915 28.4174 14.7057 28.4404 14.734 28.4663C14.8049 28.5312 14.3957 29.3629 14.2634 29.4227C14.2045 29.4493 13.7674 29.3369 13.2921 29.173C12.1349 28.7737 11.0216 28.5398 9.32217 28.3392C8.54473 28.2473 7.81327 28.1278 7.6967 28.0736C7.4648 27.9657 6.43302 27.3249 5.94246 26.9842C5.43658 26.6327 5.564 26.9981 6.14266 27.558C6.65379 28.0525 6.65387 28.0418 6.13844 28.0965C5.7459 28.1382 5.96861 28.2403 6.93183 28.4604C9.43193 29.0316 12.3867 30.1023 13.4825 30.8342C14.9684 31.8266 15.4933 33.0865 15.8396 36.4919C16.0203 38.2678 16.0205 38.2651 15.5715 38.8939C15.2863 39.2934 14.1865 41.2481 13.7773 42.083C13.6183 42.4074 13.4456 42.6608 13.3934 42.6462C13.2097 42.5951 13.2094 42.0457 13.3929 41.7621C13.4909 41.6108 13.5698 41.459 13.5683 41.4249C13.5668 41.3907 13.3705 41.1843 13.1321 40.9661C12.176 40.0913 11.8124 39.1984 11.6632 37.3584C11.5736 36.2544 11.5815 35.9541 11.7187 35.2406C11.8141 34.7446 11.9652 34.2846 12.093 34.1005C12.211 33.9309 12.3061 33.7631 12.3046 33.7277C12.303 33.6924 12.1365 33.6931 11.9345 33.7294C11.5204 33.8037 11.3283 34.0045 10.9989 34.707C10.599 35.5601 10.5257 36.0266 10.5893 37.3138C10.6749 39.0488 11.1276 40.4115 12.008 41.5848C12.2349 41.8872 12.2873 42.0613 12.3512 42.7242C12.4032 43.2633 12.4839 43.5944 12.6107 43.7888L12.7946 44.0708L12.1524 45.6863C11.0556 48.4451 10.1068 51.674 10.3967 51.6611C10.4835 51.6573 10.6648 51.338 11.6853 49.3909C16.2261 40.7265 20.0624 35.6529 23.5528 33.696C24.2425 33.3093 25.3007 32.927 25.7408 32.9055C26.0615 32.8898 26.3594 32.7466 26.2602 32.6559C26.2295 32.6278 25.9565 32.5272 25.6536 32.4323C25.2372 32.3018 24.8169 32.2622 23.9317 32.2699L22.7605 32.2799L22.3724 31.6855C21.2555 29.9748 20.9513 29.164 20.9048 27.7733C20.859 26.4059 20.8683 26.3823 21.5152 26.2199C21.8161 26.1443 22.3057 25.9558 22.6031 25.8011C23.3508 25.412 24.6231 24.5676 24.6185 24.4636C24.6143 24.3704 24.5521 24.3842 23.2124 24.7744C21.7411 25.2029 20.489 25.1552 20.0348 24.6533C19.925 24.532 19.9859 24.4717 20.5072 24.1857C21.2109 23.7997 21.8952 23.1581 22.0856 22.7061C22.1601 22.5295 22.2134 22.2143 22.2041 22.0059C22.1949 21.7974 22.2795 21.3675 22.3923 21.0504C22.6366 20.363 22.6409 19.9018 22.4037 19.7881C22.3121 19.7441 22.0709 19.688 21.868 19.6632C21.2623 19.5892 21.2684 19.598 21.4874 19.1132C21.6592 18.733 21.6822 18.5498 21.6368 17.9234C21.6073 17.5162 21.6154 17.1254 21.6547 17.0549C21.7472 16.8893 22.7349 16.9346 23.4614 17.1379C23.9152 17.2648 23.9815 17.3148 24.0482 17.5803C24.129 17.9022 24.3977 18.2777 24.6502 18.4217C24.9015 18.5651 24.9282 18.4187 24.71 18.0941C24.5986 17.9285 24.5043 17.7221 24.5002 17.6356C24.4913 17.4448 24.8238 17.0885 25.0227 17.0757C25.1679 17.0663 25.3746 16.9551 27.1347 15.9387L28.114 15.3732L27.8133 15.2832C27.457 15.1765 27.5074 15.1073 28.109 14.8779C29.1432 14.4834 30.5082 14.5118 32.166 14.9622C33.7858 15.4024 35.7846 17.2545 37.0101 19.4512C37.2863 19.9461 37.5913 20.5757 37.6879 20.8504C38.0555 21.8949 38.3733 23.0168 38.5263 23.81C38.7244 24.8363 38.8763 28.2597 38.7776 29.4698C38.5982 31.6677 38.2333 34.4099 37.8652 36.3257C37.7022 37.1743 37.4359 38.559 37.2736 39.403C37.1113 40.2471 36.936 41.4357 36.8841 42.0445C36.765 43.4406 36.8702 45.9005 37.1049 47.2082C37.2907 48.2437 37.3836 48.6098 38.1792 51.4424C38.615 52.9938 38.6574 53.2294 38.7143 54.4155C38.7711 55.6006 38.7582 55.7594 38.553 56.3994C38.1738 57.5814 37.2062 58.799 35.4748 60.2725C34.1622 61.3897 34.2181 61.4737 35.6796 60.5799C37.1362 59.6893 38.6849 58.2655 39.5758 56.998C40.3039 55.9622 40.8288 54.53 41.0157 53.0685C41.1345 52.1407 41.035 49.8526 40.7757 47.5466C40.5125 45.2046 40.4309 42.0529 40.6041 40.915C40.6701 40.481 40.8076 39.7488 40.9097 39.2878C41.1572 38.1707 41.6366 34.8254 41.7475 33.4413C42.0218 30.0207 41.8639 26.0914 41.3482 23.5003C41.185 22.6806 40.7767 21.3086 40.4543 20.4971C39.4508 17.9708 37.9547 16.2654 35.9468 15.3594C35.4226 15.1228 33.8377 14.7875 33.121 14.7616C32.7534 14.7483 32.6103 14.677 32.0927 14.2486C31.1672 13.4829 30.8187 13.3634 29.6607 13.4148C28.8439 13.4511 28.6307 13.4927 28.2825 13.6839C27.7517 13.9755 27.1713 14.5208 26.9161 14.9678C26.793 15.1833 26.6149 15.3501 26.4583 15.3965C26.3173 15.4382 25.8923 15.6905 25.5139 15.9571C24.8469 16.4271 24.544 16.5525 24.5356 16.3625C24.5282 16.1973 24.3666 16.2725 24.0978 16.5663C23.8385 16.8497 23.5177 16.9522 23.4056 16.7876C23.3742 16.7416 23.5248 16.3823 23.7402 15.9892C23.9557 15.5961 24.2443 14.9063 24.3817 14.4562C24.6082 13.7147 24.6274 13.5303 24.5873 12.4874C24.5476 11.455 24.5118 11.254 24.2392 10.532C23.5996 8.83835 22.35 7.63532 20.2548 6.69629C19.2613 6.25111 18.634 6.04888 17.8357 5.9164C17.1465 5.80203 15.6513 5.84607 15.123 5.99631ZM15.8898 14.3436C15.3395 14.9449 15.3401 16.3284 15.8907 16.6392C16.1589 16.7906 16.1918 16.7207 16.0473 16.3066C15.8189 15.6514 16.2148 14.6487 16.7763 14.4604C17.1118 14.3478 17.1426 14.249 16.881 14.1235C16.5415 13.9607 16.1632 14.0447 15.8898 14.3436ZM33.5721 16.36C33.5728 16.3763 33.6494 16.5839 33.7422 16.8214C33.9612 17.3813 33.9437 18.4452 33.7019 19.2753C33.6046 19.6092 33.3192 20.3896 33.0675 21.0093C31.7985 24.1337 31.567 24.957 31.558 26.3784C31.5505 27.5541 31.7506 28.4162 32.249 29.3557C32.5839 29.9871 32.7433 30.2102 34.3761 32.3341C35.2456 33.4651 35.7172 34.2843 36.0871 35.3062C36.4062 36.1879 36.5073 38.0187 36.292 39.0148C36.2166 39.3638 36.1802 39.6726 36.2112 39.701C36.2795 39.7635 36.6473 38.8458 36.8471 38.1141C37.057 37.3459 37.1231 36.0605 36.9915 35.3059C36.7369 33.8452 36.2261 32.7471 35.1033 31.2465C34.736 30.7557 34.2266 30.0729 33.9712 29.7292C33.1197 28.5835 32.784 27.61 32.7141 26.0836C32.6564 24.8229 32.8262 23.9317 33.5708 21.5863C34.2299 19.5106 34.3597 18.9052 34.3297 18.0481C34.3094 17.4695 34.2597 17.2731 34.0234 16.8399C33.8683 16.5555 33.7029 16.3245 33.656 16.3266C33.6091 16.3286 33.5714 16.3437 33.5721 16.36ZM27.8925 17.7537C26.9202 19.217 26.175 21.2804 25.7672 23.6386C25.6317 24.4225 25.6192 24.8629 25.6872 26.4545C25.7575 28.1013 25.7984 28.4455 26.0091 29.1605C26.7498 31.6746 27.5763 33.052 29.4176 34.8409C30.5718 35.9624 31.4558 37.1405 32.1128 38.4333C32.3977 38.9938 32.4128 39.0739 32.4574 40.2623C32.5552 42.8656 31.7073 46.7143 29.8927 51.9024C29.4413 53.1933 28.9901 54.6496 28.5603 56.2032C27.778 59.0305 27.5735 60.6057 27.7186 62.6853C27.8133 64.0418 28.0369 65.1681 28.2827 65.5262C28.4028 65.701 29.4565 65.675 29.4123 65.4984C29.3961 65.4338 29.3113 64.867 29.2239 64.2387C29.0496 62.9867 29.0733 61.1074 29.2791 59.8559C29.5232 58.3711 29.9471 56.4042 30.3092 55.0762C30.5208 54.3 30.8021 53.2659 30.9343 52.7783C31.2121 51.7535 32.0797 48.8472 32.2315 48.4329C32.3313 48.1602 32.3389 48.174 32.4805 48.8829C32.7441 50.2026 33.1288 51.0949 34.5205 53.6138C35.3496 55.1146 35.9025 56.404 35.9239 56.8867C35.9334 57.1011 35.9843 57.2569 36.044 57.2542C36.1157 57.2511 36.1246 57.0164 36.0729 56.4922C35.9974 55.7278 35.935 55.5476 34.627 52.3226C33.9881 50.7471 33.8308 50.111 33.7854 48.9172C33.7402 47.7291 33.7905 47.4815 34.5961 44.9276C34.9714 43.7379 35.2467 42.3449 35.3207 41.2606C35.3673 40.579 35.343 40.2172 35.2035 39.5138C34.8227 37.5947 34.0922 36.4437 31.9792 34.4342C30.5175 33.044 29.8417 32.2401 29.1717 31.0948C28.7307 30.341 28.5279 29.9234 27.9884 28.6577C27.7863 28.1832 27.4219 26.7263 27.2494 25.7025C27.0481 24.5084 27.032 22.1203 27.2172 20.9462C27.3691 19.9838 27.5689 19.2504 27.9912 18.1057C28.142 17.6967 28.2496 17.3476 28.2304 17.33C28.2111 17.3124 28.0591 17.5031 27.8925 17.7537ZM17.9134 21.1376C18.0161 21.1655 18.009 21.2137 17.8793 21.3704C17.7893 21.4792 17.6375 21.7423 17.5419 21.9553C17.388 22.2978 17.3121 22.3594 16.8843 22.4882C16.6185 22.5683 16.3774 22.6124 16.3488 22.5862C16.3202 22.5601 16.3377 22.3761 16.3877 22.1774C16.4378 21.9789 16.471 21.6426 16.4615 21.4303L16.4444 21.0443L17.1142 21.0733C17.4827 21.0893 17.8423 21.1182 17.9134 21.1376ZM19.8778 25.7844C20.2156 26.1975 20.2476 26.2774 20.1822 26.5433C20.0102 27.2428 20.0674 28.4712 20.3219 29.5441C20.458 30.1174 20.6331 30.7528 20.7111 30.9561C21.191 32.2066 21.3173 32.9801 21.0592 33.0864C20.7652 33.2075 19.7113 33.988 19.0571 34.5691C18.4028 35.1503 17.928 35.6736 17.0572 36.7732C16.7971 37.1018 16.5452 37.3722 16.4977 37.3744C16.4485 37.3765 16.4312 37.2371 16.4575 37.0515C16.5682 36.2724 16.6667 34.3994 16.6349 33.6798C16.563 32.0558 16.1424 30.9178 15.3534 30.212L14.9334 29.8364L15.0351 29.2786C15.091 28.9719 15.1503 28.6329 15.1669 28.5252C15.1902 28.3742 15.3782 28.2554 15.991 28.0044C17.3161 27.4616 18.2053 26.776 19.1136 25.5969C19.2696 25.3942 19.4205 25.2496 19.4489 25.2756C19.4772 25.3015 19.6702 25.5305 19.8778 25.7844ZM4.89938 29.2905C4.72712 29.8554 4.86047 31.6862 5.14537 32.6683C5.27611 33.1189 5.4087 33.5592 5.43996 33.6465C5.54446 33.938 5.25722 33.8256 4.80504 33.398C4.16267 32.7906 4.10496 32.6537 3.99389 31.4745C3.93119 30.8099 3.84135 30.3354 3.75136 30.1944C3.62113 29.9902 3.61126 30.0877 3.64113 31.2864C3.67904 32.8055 3.73347 32.9639 4.47007 33.698C4.97755 34.2038 5.95338 34.7829 6.06915 34.6468C6.10965 34.5993 5.95434 33.9256 5.72406 33.1498C5.09087 31.0164 4.94405 29.9958 5.14753 29.1411C5.23247 28.7841 5.01351 28.9159 4.89938 29.2905ZM5.56219 29.3072C5.57929 29.6468 5.84443 30.7052 6.08128 31.3796C6.3444 32.1286 6.82152 33.0557 7.21515 33.583C7.58112 34.0732 8.50452 34.8649 8.91787 35.0428C9.7078 35.3829 10.5313 35.3265 10.5139 34.9335C10.5043 34.7179 10.4159 34.5499 9.5671 33.1351C9.30602 32.7 9.11269 32.2832 9.13743 32.209C9.24682 31.8813 9.60838 32.0601 10.4496 32.8578C10.9157 33.2996 11.3148 33.6416 11.3367 33.6177C11.4094 33.5383 9.94241 31.7952 9.60646 31.5617C9.25718 31.3191 8.80443 31.2776 8.62669 31.4718C8.37051 31.7518 8.62018 32.4845 9.33236 33.5429C9.73237 34.1372 9.53341 34.2667 8.86337 33.8482C8.40112 33.5594 7.92362 33.0952 7.46671 32.4905C7.05937 31.9513 6.13679 30.2804 5.90431 29.6608C5.74116 29.226 5.54797 29.0264 5.56219 29.3072ZM1.63298 32.1841C1.64134 32.3477 1.74314 32.6739 2.37059 34.547C2.81552 35.8749 3.53683 37.0042 4.32505 37.6069C4.98107 38.1083 6.18638 38.6534 7.54399 39.0626C8.92011 39.4773 8.96585 39.5274 9.01662 40.6755C9.0536 41.5128 8.99406 42.0351 8.55343 44.7349C7.90758 48.6929 7.82533 49.3433 7.72832 51.2608C7.62201 53.3617 7.95434 55.4749 8.52755 56.3419C9.15581 57.2921 9.99656 57.8629 10.9055 57.9561C11.7745 58.0453 12.7925 57.6208 13.5686 56.8456C13.8318 56.5828 14.0489 56.3822 14.051 56.3999C14.0532 56.4175 14.0928 56.9905 14.139 57.6731C14.1929 58.4709 14.2868 59.109 14.4017 59.4596C14.6407 60.1886 15.4163 61.6139 16.409 63.1482C17.4741 64.7945 17.6192 65.0468 17.7805 65.5338C17.9632 66.085 18.0492 66.169 18.3784 66.1181C18.7467 66.0612 18.8301 65.7964 18.7209 65.031C18.565 63.9386 18.3406 63.3537 17.007 60.5656C16.4026 59.3021 16.1716 58.4585 16.1196 57.3256C16.0956 56.8035 16.1115 56.3023 16.1549 56.2119C16.2191 56.0779 16.3765 56.0381 17.0083 55.9965C18.2288 55.916 19.9137 55.2763 20.9434 54.5024C22.6449 53.2235 23.6908 51.2422 23.8162 49.06C23.8344 48.7422 23.8272 48.4832 23.8 48.4844C23.7729 48.4856 23.5636 48.9262 23.3351 49.4635C22.8082 50.7026 22.0777 51.7044 21.1313 52.4858C20.4411 53.0559 19.527 53.6019 18.8231 53.8648C18.0577 54.1506 16.197 54.1727 16.01 53.8982C15.9797 53.8536 16.2984 53.3377 16.7182 52.7515C19.8011 48.4478 21.5663 46.6005 24.1522 44.9719C24.7653 44.5858 25.3136 44.2678 25.3708 44.2653C25.4278 44.2627 25.5233 44.1962 25.5829 44.1175C25.6757 43.995 25.6465 43.9765 25.381 43.9895C24.456 44.0346 23.0327 44.7043 21.7345 45.7053C20.261 46.8415 19.2523 47.8677 16.2644 51.2708C13.4574 54.4677 12.5197 55.4122 11.6878 55.8806C11.1266 56.1965 10.8094 56.223 10.3545 55.9917C9.91107 55.7663 9.54741 55.295 9.25399 54.5655C9.04711 54.0512 9.01061 53.8 8.94841 52.4631C8.87089 50.7953 8.91908 50.0963 9.28322 47.6072C9.64507 45.1331 9.73615 44.5507 9.92979 43.4723C10.3045 41.3843 10.3883 39.1758 10.113 38.6365C9.98955 38.3945 9.97996 38.3904 8.52714 37.9552C5.85505 37.1548 4.58189 36.3422 3.33201 34.6391C2.85777 33.9929 1.92675 32.5268 1.91551 32.4085C1.91253 32.3768 1.84569 32.2731 1.76697 32.1782C1.6254 32.0072 1.62402 32.0073 1.63298 32.1841Z" fill="#976474"/>
</g>
<defs>
<filter id="filter0_d_11_4" x="0.470215" y="0.741089" width="42.6604" height="66.6398" filterUnits="userSpaceOnUse" color-interpolation-filters="sRGB">
<feFlood flood-opacity="0" result="BackgroundImageFix"/>
<feColorMatrix in="SourceAlpha" type="matrix" values="0 0 0 0 0 0 0 0 0 0 0 0 0 0 0 0 0 0 127 0" result="hardAlpha"/>
<feOffset dx="0.25" dy="0.25"/>
<feGaussianBlur stdDeviation="0.5"/>
<feComposite in2="hardAlpha" operator="out"/>
<feColorMatrix type="matrix" values="0 0 0 0 0.2 0 0 0 0 0.0745098 0 0 0 0 0.117647 0 0 0 0.5 0"/>
<feBlend mode="normal" in2="BackgroundImageFix" result="effect1_dropShadow_11_4"/>
<feBlend mode="normal" in="SourceGraphic" in2="effect1_dropShadow_11_4" result="shape"/>
</filter>
</defs>
</svg>
