<svg xmlns="http://www.w3.org/2000/svg" width="14" height="14" viewBox="0 0 14 14" fill="none">
  <path d="M5.66667 0.333313C4.83238 0.333759 4.00983 0.529923 3.26513 0.906039C2.52043 1.28215 1.87436 1.82773 1.37883 2.49892C0.883309 3.17011 0.552156 3.94818 0.41199 4.77061C0.271825 5.59304 0.326556 6.43689 0.571786 7.23432C0.817016 8.03175 1.2459 8.76053 1.82398 9.36209C2.40205 9.96364 3.11319 10.4212 3.90023 10.698C4.68728 10.9747 5.52827 11.063 6.35563 10.9557C7.18299 10.8483 7.97362 10.5484 8.664 10.08L11.96 13.3733C12.0515 13.4716 12.1619 13.5504 12.2846 13.605C12.4073 13.6597 12.5397 13.6891 12.674 13.6914C12.8082 13.6938 12.9416 13.6691 13.0661 13.6188C13.1906 13.5685 13.3038 13.4937 13.3987 13.3987C13.4937 13.3037 13.5685 13.1906 13.6188 13.0661C13.6691 12.9416 13.6938 12.8082 13.6915 12.674C13.6891 12.5397 13.6597 12.4073 13.605 12.2846C13.5504 12.1619 13.4716 12.0515 13.3733 11.96L10.08 8.66398C10.6248 7.86209 10.9408 6.92685 10.9939 5.95883C11.047 4.99081 10.8353 4.02661 10.3814 3.16993C9.92759 2.31324 9.24882 1.59646 8.4181 1.09667C7.58738 0.596872 6.63614 0.332962 5.66667 0.333313ZM2.33333 5.66665C2.33333 4.78259 2.68452 3.93475 3.30964 3.30962C3.93476 2.6845 4.78261 2.33331 5.66667 2.33331C6.55072 2.33331 7.39857 2.6845 8.02369 3.30962C8.64881 3.93475 9 4.78259 9 5.66665C9 6.5507 8.64881 7.39855 8.02369 8.02367C7.39857 8.64879 6.55072 8.99998 5.66667 8.99998C4.78261 8.99998 3.93476 8.64879 3.30964 8.02367C2.68452 7.39855 2.33333 6.5507 2.33333 5.66665Z" fill="#7E7B7A"/>
</svg>